<?xml version="1.0" standalone="no"?>
<svg viewBox="0 0 200 200" xmlns="http://www.w3.org/2000/svg">
  <path fill="#006CC3" d="M41.5,-60.3C53.2,-57.1,61.6,-44.5,63.7,-31.5C65.9,-18.5,61.8,-5.1,61.6,10.1C61.4,25.4,65,42.4,59.5,54.8C53.9,67.2,39.1,74.9,24.5,75.4C10,75.9,-4.2,69.3,-19.6,65.4C-35,61.5,-51.7,60.3,-56.1,51C-60.5,41.6,-52.6,24,-53.8,8.4C-55,-7.2,-65.2,-20.8,-62,-28.5C-58.7,-36.1,-42,-37.7,-29.4,-40.4C-16.9,-43.2,-8.4,-46.9,3.3,-52C14.9,-57.1,29.9,-63.4,41.5,-60.3Z" transform="translate(100 100)" />
</svg>
